<mxfile host="app.diagrams.net" modified="2020-11-11T03:11:28.255Z" agent="5.0 (Windows NT 10.0; Win64; x64) AppleWebKit/537.36 (KHTML, like Gecko) Chrome/86.0.4240.183 Safari/537.36" etag="aVZOj3VK9DKpWVHsuh_e" version="13.9.2" type="github">
  <diagram id="enzL_7lco_1W83Yhi6d6" name="Page-1">
    <mxGraphModel dx="1929" dy="582" grid="1" gridSize="10" guides="1" tooltips="1" connect="1" arrows="1" fold="1" page="1" pageScale="1" pageWidth="827" pageHeight="1169" math="0" shadow="0">
      <root>
        <mxCell id="0" />
        <mxCell id="1" parent="0" />
        <mxCell id="CRFl8nXwyDWFnISG7OBX-1" value="" style="rounded=0;whiteSpace=wrap;html=1;" vertex="1" parent="1">
          <mxGeometry x="200" y="80" width="280" height="260" as="geometry" />
        </mxCell>
        <mxCell id="CRFl8nXwyDWFnISG7OBX-2" value="vpp1" style="whiteSpace=wrap;html=1;aspect=fixed;" vertex="1" parent="1">
          <mxGeometry x="250" y="100" width="80" height="80" as="geometry" />
        </mxCell>
        <mxCell id="CRFl8nXwyDWFnISG7OBX-3" value="netns" style="text;html=1;strokeColor=none;fillColor=none;align=center;verticalAlign=middle;whiteSpace=wrap;rounded=0;" vertex="1" parent="1">
          <mxGeometry x="270" y="100" width="40" height="20" as="geometry" />
        </mxCell>
        <mxCell id="CRFl8nXwyDWFnISG7OBX-4" value="" style="rounded=1;whiteSpace=wrap;html=1;" vertex="1" parent="1">
          <mxGeometry x="237.5" y="219" width="205" height="52" as="geometry" />
        </mxCell>
        <mxCell id="CRFl8nXwyDWFnISG7OBX-5" value="VPP" style="text;html=1;strokeColor=none;fillColor=none;align=center;verticalAlign=middle;whiteSpace=wrap;rounded=0;" vertex="1" parent="1">
          <mxGeometry x="322.5" y="251" width="40" height="20" as="geometry" />
        </mxCell>
        <mxCell id="CRFl8nXwyDWFnISG7OBX-8" style="edgeStyle=orthogonalEdgeStyle;rounded=0;orthogonalLoop=1;jettySize=auto;html=1;exitX=0.5;exitY=1;exitDx=0;exitDy=0;entryX=0.5;entryY=0;entryDx=0;entryDy=0;startArrow=classic;startFill=1;" edge="1" parent="1" source="CRFl8nXwyDWFnISG7OBX-6" target="CRFl8nXwyDWFnISG7OBX-10">
          <mxGeometry relative="1" as="geometry">
            <Array as="points">
              <mxPoint x="290" y="210" />
              <mxPoint x="289" y="210" />
            </Array>
          </mxGeometry>
        </mxCell>
        <mxCell id="CRFl8nXwyDWFnISG7OBX-6" value="veth-vpp1" style="rounded=1;whiteSpace=wrap;html=1;" vertex="1" parent="1">
          <mxGeometry x="257.5" y="170" width="65" height="20" as="geometry" />
        </mxCell>
        <mxCell id="CRFl8nXwyDWFnISG7OBX-7" value="172.16.1.2" style="text;html=1;strokeColor=none;fillColor=none;align=center;verticalAlign=middle;whiteSpace=wrap;rounded=0;" vertex="1" parent="1">
          <mxGeometry x="270" y="150" width="40" height="20" as="geometry" />
        </mxCell>
        <mxCell id="CRFl8nXwyDWFnISG7OBX-64" style="edgeStyle=none;rounded=0;orthogonalLoop=1;jettySize=auto;html=1;exitX=0.5;exitY=1;exitDx=0;exitDy=0;entryX=0.5;entryY=1;entryDx=0;entryDy=0;startArrow=classic;startFill=1;" edge="1" parent="1" source="CRFl8nXwyDWFnISG7OBX-9" target="CRFl8nXwyDWFnISG7OBX-1">
          <mxGeometry relative="1" as="geometry" />
        </mxCell>
        <mxCell id="CRFl8nXwyDWFnISG7OBX-9" value="veth-vpp2" style="rounded=1;whiteSpace=wrap;html=1;" vertex="1" parent="1">
          <mxGeometry x="362.5" y="300" width="65" height="20" as="geometry" />
        </mxCell>
        <mxCell id="CRFl8nXwyDWFnISG7OBX-10" value="host-vpp1" style="rounded=1;whiteSpace=wrap;html=1;" vertex="1" parent="1">
          <mxGeometry x="257.5" y="219" width="65" height="20" as="geometry" />
        </mxCell>
        <mxCell id="CRFl8nXwyDWFnISG7OBX-60" style="edgeStyle=orthogonalEdgeStyle;rounded=0;orthogonalLoop=1;jettySize=auto;html=1;exitX=0.5;exitY=1;exitDx=0;exitDy=0;entryX=0.5;entryY=0;entryDx=0;entryDy=0;startArrow=classic;startFill=1;" edge="1" parent="1" source="CRFl8nXwyDWFnISG7OBX-12" target="CRFl8nXwyDWFnISG7OBX-9">
          <mxGeometry relative="1" as="geometry" />
        </mxCell>
        <mxCell id="CRFl8nXwyDWFnISG7OBX-12" value="host-vpp2" style="rounded=1;whiteSpace=wrap;html=1;" vertex="1" parent="1">
          <mxGeometry x="362.5" y="251" width="65" height="20" as="geometry" />
        </mxCell>
        <mxCell id="CRFl8nXwyDWFnISG7OBX-13" value="172.16.2.2" style="text;html=1;strokeColor=none;fillColor=none;align=center;verticalAlign=middle;whiteSpace=wrap;rounded=0;" vertex="1" parent="1">
          <mxGeometry x="307.5" y="300" width="40" height="20" as="geometry" />
        </mxCell>
        <mxCell id="CRFl8nXwyDWFnISG7OBX-14" value="172.16.1.1" style="text;html=1;strokeColor=none;fillColor=none;align=center;verticalAlign=middle;whiteSpace=wrap;rounded=0;" vertex="1" parent="1">
          <mxGeometry x="270" y="239" width="40" height="20" as="geometry" />
        </mxCell>
        <mxCell id="CRFl8nXwyDWFnISG7OBX-15" value="172.16.2.1" style="text;html=1;strokeColor=none;fillColor=none;align=center;verticalAlign=middle;whiteSpace=wrap;rounded=0;" vertex="1" parent="1">
          <mxGeometry x="375" y="232" width="40" height="20" as="geometry" />
        </mxCell>
        <mxCell id="CRFl8nXwyDWFnISG7OBX-17" value="" style="shape=table;html=1;whiteSpace=wrap;startSize=0;container=1;collapsible=0;childLayout=tableLayout;" vertex="1" parent="1">
          <mxGeometry x="-130" y="102" width="320" height="60" as="geometry" />
        </mxCell>
        <mxCell id="CRFl8nXwyDWFnISG7OBX-18" value="" style="shape=partialRectangle;html=1;whiteSpace=wrap;collapsible=0;dropTarget=0;pointerEvents=0;fillColor=none;top=0;left=0;bottom=0;right=0;points=[[0,0.5],[1,0.5]];portConstraint=eastwest;" vertex="1" parent="CRFl8nXwyDWFnISG7OBX-17">
          <mxGeometry width="320" height="20" as="geometry" />
        </mxCell>
        <mxCell id="CRFl8nXwyDWFnISG7OBX-19" value="dst" style="shape=partialRectangle;html=1;whiteSpace=wrap;connectable=0;fillColor=none;top=0;left=0;bottom=0;right=0;overflow=hidden;" vertex="1" parent="CRFl8nXwyDWFnISG7OBX-18">
          <mxGeometry width="107" height="20" as="geometry" />
        </mxCell>
        <mxCell id="CRFl8nXwyDWFnISG7OBX-20" value="via" style="shape=partialRectangle;html=1;whiteSpace=wrap;connectable=0;fillColor=none;top=0;left=0;bottom=0;right=0;overflow=hidden;" vertex="1" parent="CRFl8nXwyDWFnISG7OBX-18">
          <mxGeometry x="107" width="106" height="20" as="geometry" />
        </mxCell>
        <mxCell id="CRFl8nXwyDWFnISG7OBX-21" value="port" style="shape=partialRectangle;html=1;whiteSpace=wrap;connectable=0;fillColor=none;top=0;left=0;bottom=0;right=0;overflow=hidden;" vertex="1" parent="CRFl8nXwyDWFnISG7OBX-18">
          <mxGeometry x="213" width="107" height="20" as="geometry" />
        </mxCell>
        <mxCell id="CRFl8nXwyDWFnISG7OBX-22" value="" style="shape=partialRectangle;html=1;whiteSpace=wrap;collapsible=0;dropTarget=0;pointerEvents=0;fillColor=none;top=0;left=0;bottom=0;right=0;points=[[0,0.5],[1,0.5]];portConstraint=eastwest;" vertex="1" parent="CRFl8nXwyDWFnISG7OBX-17">
          <mxGeometry y="20" width="320" height="20" as="geometry" />
        </mxCell>
        <mxCell id="CRFl8nXwyDWFnISG7OBX-23" value="172.16.2.0" style="shape=partialRectangle;html=1;whiteSpace=wrap;connectable=0;fillColor=none;top=0;left=0;bottom=0;right=0;overflow=hidden;" vertex="1" parent="CRFl8nXwyDWFnISG7OBX-22">
          <mxGeometry width="107" height="20" as="geometry" />
        </mxCell>
        <mxCell id="CRFl8nXwyDWFnISG7OBX-24" value="172.16.1.1" style="shape=partialRectangle;html=1;whiteSpace=wrap;connectable=0;fillColor=none;top=0;left=0;bottom=0;right=0;overflow=hidden;" vertex="1" parent="CRFl8nXwyDWFnISG7OBX-22">
          <mxGeometry x="107" width="106" height="20" as="geometry" />
        </mxCell>
        <mxCell id="CRFl8nXwyDWFnISG7OBX-25" value="veth-vpp1" style="shape=partialRectangle;html=1;whiteSpace=wrap;connectable=0;fillColor=none;top=0;left=0;bottom=0;right=0;overflow=hidden;" vertex="1" parent="CRFl8nXwyDWFnISG7OBX-22">
          <mxGeometry x="213" width="107" height="20" as="geometry" />
        </mxCell>
        <mxCell id="CRFl8nXwyDWFnISG7OBX-26" value="" style="shape=partialRectangle;html=1;whiteSpace=wrap;collapsible=0;dropTarget=0;pointerEvents=0;fillColor=none;top=0;left=0;bottom=0;right=0;points=[[0,0.5],[1,0.5]];portConstraint=eastwest;" vertex="1" parent="CRFl8nXwyDWFnISG7OBX-17">
          <mxGeometry y="40" width="320" height="20" as="geometry" />
        </mxCell>
        <mxCell id="CRFl8nXwyDWFnISG7OBX-27" value="default" style="shape=partialRectangle;html=1;whiteSpace=wrap;connectable=0;fillColor=none;top=0;left=0;bottom=0;right=0;overflow=hidden;" vertex="1" parent="CRFl8nXwyDWFnISG7OBX-26">
          <mxGeometry width="107" height="20" as="geometry" />
        </mxCell>
        <mxCell id="CRFl8nXwyDWFnISG7OBX-28" value="172.16.1.1" style="shape=partialRectangle;html=1;whiteSpace=wrap;connectable=0;fillColor=none;top=0;left=0;bottom=0;right=0;overflow=hidden;" vertex="1" parent="CRFl8nXwyDWFnISG7OBX-26">
          <mxGeometry x="107" width="106" height="20" as="geometry" />
        </mxCell>
        <mxCell id="CRFl8nXwyDWFnISG7OBX-29" value="veth-vpp1" style="shape=partialRectangle;html=1;whiteSpace=wrap;connectable=0;fillColor=none;top=0;left=0;bottom=0;right=0;overflow=hidden;" vertex="1" parent="CRFl8nXwyDWFnISG7OBX-26">
          <mxGeometry x="213" width="107" height="20" as="geometry" />
        </mxCell>
        <mxCell id="CRFl8nXwyDWFnISG7OBX-30" value="netns vpp1 route tableï¼š" style="text;html=1;strokeColor=none;fillColor=none;align=center;verticalAlign=middle;whiteSpace=wrap;rounded=0;" vertex="1" parent="1">
          <mxGeometry x="-130" y="80" width="140" height="20" as="geometry" />
        </mxCell>
        <mxCell id="CRFl8nXwyDWFnISG7OBX-31" value="" style="shape=table;html=1;whiteSpace=wrap;startSize=0;container=1;collapsible=0;childLayout=tableLayout;" vertex="1" parent="1">
          <mxGeometry x="-130" y="194" width="320" height="60" as="geometry" />
        </mxCell>
        <mxCell id="CRFl8nXwyDWFnISG7OBX-32" value="" style="shape=partialRectangle;html=1;whiteSpace=wrap;collapsible=0;dropTarget=0;pointerEvents=0;fillColor=none;top=0;left=0;bottom=0;right=0;points=[[0,0.5],[1,0.5]];portConstraint=eastwest;" vertex="1" parent="CRFl8nXwyDWFnISG7OBX-31">
          <mxGeometry width="320" height="20" as="geometry" />
        </mxCell>
        <mxCell id="CRFl8nXwyDWFnISG7OBX-33" value="dst" style="shape=partialRectangle;html=1;whiteSpace=wrap;connectable=0;fillColor=none;top=0;left=0;bottom=0;right=0;overflow=hidden;" vertex="1" parent="CRFl8nXwyDWFnISG7OBX-32">
          <mxGeometry width="107" height="20" as="geometry" />
        </mxCell>
        <mxCell id="CRFl8nXwyDWFnISG7OBX-34" value="via" style="shape=partialRectangle;html=1;whiteSpace=wrap;connectable=0;fillColor=none;top=0;left=0;bottom=0;right=0;overflow=hidden;" vertex="1" parent="CRFl8nXwyDWFnISG7OBX-32">
          <mxGeometry x="107" width="106" height="20" as="geometry" />
        </mxCell>
        <mxCell id="CRFl8nXwyDWFnISG7OBX-35" value="port" style="shape=partialRectangle;html=1;whiteSpace=wrap;connectable=0;fillColor=none;top=0;left=0;bottom=0;right=0;overflow=hidden;" vertex="1" parent="CRFl8nXwyDWFnISG7OBX-32">
          <mxGeometry x="213" width="107" height="20" as="geometry" />
        </mxCell>
        <mxCell id="CRFl8nXwyDWFnISG7OBX-36" value="" style="shape=partialRectangle;html=1;whiteSpace=wrap;collapsible=0;dropTarget=0;pointerEvents=0;fillColor=none;top=0;left=0;bottom=0;right=0;points=[[0,0.5],[1,0.5]];portConstraint=eastwest;" vertex="1" parent="CRFl8nXwyDWFnISG7OBX-31">
          <mxGeometry y="20" width="320" height="20" as="geometry" />
        </mxCell>
        <mxCell id="CRFl8nXwyDWFnISG7OBX-37" value="172.16.1.0" style="shape=partialRectangle;html=1;whiteSpace=wrap;connectable=0;fillColor=none;top=0;left=0;bottom=0;right=0;overflow=hidden;" vertex="1" parent="CRFl8nXwyDWFnISG7OBX-36">
          <mxGeometry width="107" height="20" as="geometry" />
        </mxCell>
        <mxCell id="CRFl8nXwyDWFnISG7OBX-38" value="172.16.2.2" style="shape=partialRectangle;html=1;whiteSpace=wrap;connectable=0;fillColor=none;top=0;left=0;bottom=0;right=0;overflow=hidden;" vertex="1" parent="CRFl8nXwyDWFnISG7OBX-36">
          <mxGeometry x="107" width="106" height="20" as="geometry" />
        </mxCell>
        <mxCell id="CRFl8nXwyDWFnISG7OBX-39" value="veth-vpp2" style="shape=partialRectangle;html=1;whiteSpace=wrap;connectable=0;fillColor=none;top=0;left=0;bottom=0;right=0;overflow=hidden;" vertex="1" parent="CRFl8nXwyDWFnISG7OBX-36">
          <mxGeometry x="213" width="107" height="20" as="geometry" />
        </mxCell>
        <mxCell id="CRFl8nXwyDWFnISG7OBX-40" value="" style="shape=partialRectangle;html=1;whiteSpace=wrap;collapsible=0;dropTarget=0;pointerEvents=0;fillColor=none;top=0;left=0;bottom=0;right=0;points=[[0,0.5],[1,0.5]];portConstraint=eastwest;" vertex="1" parent="CRFl8nXwyDWFnISG7OBX-31">
          <mxGeometry y="40" width="320" height="20" as="geometry" />
        </mxCell>
        <mxCell id="CRFl8nXwyDWFnISG7OBX-41" value="172.16.1.0" style="shape=partialRectangle;html=1;whiteSpace=wrap;connectable=0;fillColor=none;top=0;left=0;bottom=0;right=0;overflow=hidden;" vertex="1" parent="CRFl8nXwyDWFnISG7OBX-40">
          <mxGeometry width="107" height="20" as="geometry" />
        </mxCell>
        <mxCell id="CRFl8nXwyDWFnISG7OBX-42" value="172.16.1.1" style="shape=partialRectangle;html=1;whiteSpace=wrap;connectable=0;fillColor=none;top=0;left=0;bottom=0;right=0;overflow=hidden;" vertex="1" parent="CRFl8nXwyDWFnISG7OBX-40">
          <mxGeometry x="107" width="106" height="20" as="geometry" />
        </mxCell>
        <mxCell id="CRFl8nXwyDWFnISG7OBX-43" value="host-vpp1" style="shape=partialRectangle;html=1;whiteSpace=wrap;connectable=0;fillColor=none;top=0;left=0;bottom=0;right=0;overflow=hidden;" vertex="1" parent="CRFl8nXwyDWFnISG7OBX-40">
          <mxGeometry x="213" width="107" height="20" as="geometry" />
        </mxCell>
        <mxCell id="CRFl8nXwyDWFnISG7OBX-44" value="host route tableï¼š" style="text;html=1;strokeColor=none;fillColor=none;align=center;verticalAlign=middle;whiteSpace=wrap;rounded=0;" vertex="1" parent="1">
          <mxGeometry x="-130" y="172" width="110" height="20" as="geometry" />
        </mxCell>
        <mxCell id="CRFl8nXwyDWFnISG7OBX-45" value="" style="shape=table;html=1;whiteSpace=wrap;startSize=0;container=1;collapsible=0;childLayout=tableLayout;" vertex="1" parent="1">
          <mxGeometry x="-130" y="254" width="320" height="40" as="geometry" />
        </mxCell>
        <mxCell id="CRFl8nXwyDWFnISG7OBX-46" value="" style="shape=partialRectangle;html=1;whiteSpace=wrap;collapsible=0;dropTarget=0;pointerEvents=0;fillColor=none;top=0;left=0;bottom=0;right=0;points=[[0,0.5],[1,0.5]];portConstraint=eastwest;" vertex="1" parent="CRFl8nXwyDWFnISG7OBX-45">
          <mxGeometry width="320" height="20" as="geometry" />
        </mxCell>
        <mxCell id="CRFl8nXwyDWFnISG7OBX-47" value="172.16.2.0" style="shape=partialRectangle;html=1;whiteSpace=wrap;connectable=0;fillColor=none;top=0;left=0;bottom=0;right=0;overflow=hidden;" vertex="1" parent="CRFl8nXwyDWFnISG7OBX-46">
          <mxGeometry width="107" height="20" as="geometry" />
        </mxCell>
        <mxCell id="CRFl8nXwyDWFnISG7OBX-48" value="172.16.2.2" style="shape=partialRectangle;html=1;whiteSpace=wrap;connectable=0;fillColor=none;top=0;left=0;bottom=0;right=0;overflow=hidden;" vertex="1" parent="CRFl8nXwyDWFnISG7OBX-46">
          <mxGeometry x="107" width="106" height="20" as="geometry" />
        </mxCell>
        <mxCell id="CRFl8nXwyDWFnISG7OBX-49" value="host-vpp2" style="shape=partialRectangle;html=1;whiteSpace=wrap;connectable=0;fillColor=none;top=0;left=0;bottom=0;right=0;overflow=hidden;" vertex="1" parent="CRFl8nXwyDWFnISG7OBX-46">
          <mxGeometry x="213" width="107" height="20" as="geometry" />
        </mxCell>
        <mxCell id="CRFl8nXwyDWFnISG7OBX-50" value="" style="shape=partialRectangle;html=1;whiteSpace=wrap;collapsible=0;dropTarget=0;pointerEvents=0;fillColor=none;top=0;left=0;bottom=0;right=0;points=[[0,0.5],[1,0.5]];portConstraint=eastwest;" vertex="1" parent="CRFl8nXwyDWFnISG7OBX-45">
          <mxGeometry y="20" width="320" height="20" as="geometry" />
        </mxCell>
        <mxCell id="CRFl8nXwyDWFnISG7OBX-51" value="0.0.0.0" style="shape=partialRectangle;html=1;whiteSpace=wrap;connectable=0;fillColor=none;top=0;left=0;bottom=0;right=0;overflow=hidden;" vertex="1" parent="CRFl8nXwyDWFnISG7OBX-50">
          <mxGeometry width="107" height="20" as="geometry" />
        </mxCell>
        <mxCell id="CRFl8nXwyDWFnISG7OBX-52" value="172.16.2.2" style="shape=partialRectangle;html=1;whiteSpace=wrap;connectable=0;fillColor=none;top=0;left=0;bottom=0;right=0;overflow=hidden;" vertex="1" parent="CRFl8nXwyDWFnISG7OBX-50">
          <mxGeometry x="107" width="106" height="20" as="geometry" />
        </mxCell>
        <mxCell id="CRFl8nXwyDWFnISG7OBX-53" value="veth-vpp2" style="shape=partialRectangle;html=1;whiteSpace=wrap;connectable=0;fillColor=none;top=0;left=0;bottom=0;right=0;overflow=hidden;" vertex="1" parent="CRFl8nXwyDWFnISG7OBX-50">
          <mxGeometry x="213" width="107" height="20" as="geometry" />
        </mxCell>
        <mxCell id="CRFl8nXwyDWFnISG7OBX-58" value="" style="endArrow=classic;html=1;entryX=1;entryY=0.25;entryDx=0;entryDy=0;exitX=0.5;exitY=1;exitDx=0;exitDy=0;" edge="1" parent="1" source="CRFl8nXwyDWFnISG7OBX-59" target="CRFl8nXwyDWFnISG7OBX-12">
          <mxGeometry width="50" height="50" relative="1" as="geometry">
            <mxPoint x="490" y="270" as="sourcePoint" />
            <mxPoint x="540" y="170" as="targetPoint" />
          </mxGeometry>
        </mxCell>
        <mxCell id="CRFl8nXwyDWFnISG7OBX-59" value="proxy-arp" style="text;html=1;strokeColor=none;fillColor=none;align=center;verticalAlign=middle;whiteSpace=wrap;rounded=0;" vertex="1" parent="1">
          <mxGeometry x="410" y="165" width="60" height="20" as="geometry" />
        </mxCell>
        <mxCell id="CRFl8nXwyDWFnISG7OBX-68" style="edgeStyle=none;rounded=0;orthogonalLoop=1;jettySize=auto;html=1;exitX=0.5;exitY=1;exitDx=0;exitDy=0;entryX=0.625;entryY=0.2;entryDx=0;entryDy=0;entryPerimeter=0;startArrow=classic;startFill=1;strokeWidth=1;" edge="1" parent="1" source="CRFl8nXwyDWFnISG7OBX-61" target="CRFl8nXwyDWFnISG7OBX-67">
          <mxGeometry relative="1" as="geometry" />
        </mxCell>
        <mxCell id="CRFl8nXwyDWFnISG7OBX-61" value="wlan0" style="rounded=1;whiteSpace=wrap;html=1;" vertex="1" parent="1">
          <mxGeometry x="307.5" y="340" width="65" height="20" as="geometry" />
        </mxCell>
        <mxCell id="CRFl8nXwyDWFnISG7OBX-67" value="" style="ellipse;shape=cloud;whiteSpace=wrap;html=1;" vertex="1" parent="1">
          <mxGeometry x="280" y="390" width="120" height="50" as="geometry" />
        </mxCell>
        <mxCell id="CRFl8nXwyDWFnISG7OBX-66" value="" style="curved=1;endArrow=classic;html=1;strokeColor=#FF0000;entryX=0.5;entryY=0;entryDx=0;entryDy=0;strokeWidth=2;startArrow=classic;startFill=1;exitX=0.333;exitY=0.4;exitDx=0;exitDy=0;exitPerimeter=0;" edge="1" parent="1" source="CRFl8nXwyDWFnISG7OBX-67" target="CRFl8nXwyDWFnISG7OBX-7">
          <mxGeometry width="50" height="50" relative="1" as="geometry">
            <mxPoint x="330" y="370" as="sourcePoint" />
            <mxPoint x="570" y="190" as="targetPoint" />
            <Array as="points">
              <mxPoint x="460" y="250" />
              <mxPoint x="290" y="250" />
            </Array>
          </mxGeometry>
        </mxCell>
        <mxCell id="CRFl8nXwyDWFnISG7OBX-69" value="NATï¼š" style="text;html=1;strokeColor=none;fillColor=none;align=center;verticalAlign=middle;whiteSpace=wrap;rounded=0;" vertex="1" parent="1">
          <mxGeometry x="-130" y="300" width="40" height="20" as="geometry" />
        </mxCell>
        <mxCell id="CRFl8nXwyDWFnISG7OBX-70" value="&lt;div&gt;iptables -t nat -A POSTROUTING -o wlan0 -j MASQUERADE&lt;/div&gt;&lt;div&gt;&amp;nbsp;&lt;/div&gt;&lt;div&gt;iptables -A FORWARD -i wlan0 -o veth_vpp2 -j ACCEPT&lt;/div&gt;&lt;div&gt;iptables -A FORWARD -o wlan0 -i veth_vpp2 -j ACCEPT&lt;/div&gt;" style="text;html=1;strokeColor=none;fillColor=none;align=center;verticalAlign=middle;whiteSpace=wrap;rounded=0;" vertex="1" parent="1">
          <mxGeometry x="-130" y="340" width="330" height="20" as="geometry" />
        </mxCell>
      </root>
    </mxGraphModel>
  </diagram>
</mxfile>
